<?xml version="1.0" encoding="UTF-8" standalone="no"?>
<!-- Created with Inkscape (http://www.inkscape.org/) -->
<svg id="svg11300" xmlns="http://www.w3.org/2000/svg" height="48" width="48" version="1.0" xmlns:xlink="http://www.w3.org/1999/xlink">
 <defs id="defs3">
  <linearGradient id="linearGradient2452" y2="42.282" gradientUnits="userSpaceOnUse" x2="7.7521" gradientTransform="matrix(.75516 .39514 -.39514 .75516 -25.912 6.5326)" y1="37.752" x1="13.236">
   <stop id="stop2448" style="stop-color:#fff" offset="0"/>
   <stop id="stop2450" style="stop-color:#fff;stop-opacity:0" offset="1"/>
  </linearGradient>
  <radialGradient id="radialGradient6969" gradientUnits="userSpaceOnUse" cy="35.357" cx="15.415" gradientTransform="matrix(1.5727 5.425e-17 1.0379e-12 1.5326 -55.367 -21.358)" r="7.5792">
   <stop id="stop6965" style="stop-color:#696969" offset="0"/>
   <stop id="stop6967" offset="1"/>
  </radialGradient>
  <linearGradient id="linearGradient6945" y2="33.439" gradientUnits="userSpaceOnUse" x2="23.109" gradientTransform="translate(-46.407 -1.8029)" y1="30.001" x1="19.395">
   <stop id="stop6941" style="stop-color:#bdbdbd" offset="0"/>
   <stop id="stop6947" style="stop-color:#e2e2e2" offset=".33333"/>
   <stop id="stop6949" style="stop-color:#a3a3a3" offset=".66667"/>
   <stop id="stop6943" style="stop-color:#ddd" offset="1"/>
  </linearGradient>
  <linearGradient id="linearGradient6957" y2="11.182" gradientUnits="userSpaceOnUse" x2="27.754" gradientTransform="translate(-49.305 1.8777)" y1="19.24" x1="37.018">
   <stop id="stop6953" style="stop-color:#6e3d09" offset="0"/>
   <stop id="stop6959" style="stop-color:#ea8113" offset=".24242"/>
   <stop id="stop6961" style="stop-color:#5c3307" offset=".62121"/>
   <stop id="stop6955" style="stop-color:#e07c12" offset="1"/>
  </linearGradient>
  <linearGradient id="linearGradient6468">
   <stop id="stop6470" style="stop-color:#fff" offset="0"/>
   <stop id="stop6472" style="stop-color:#b9b9b0" offset="1"/>
  </linearGradient>
  <linearGradient id="linearGradient6458" y2="31.57" gradientUnits="userSpaceOnUse" x2="5.9846" y1="23.362" x1="6.3052">
   <stop id="stop6454" style="stop-color:#fff" offset="0"/>
   <stop id="stop6456" style="stop-color:#fff;stop-opacity:0" offset="1"/>
  </linearGradient>
  <radialGradient id="radialGradient6474" xlink:href="#linearGradient6468" gradientUnits="userSpaceOnUse" cy="19.598" cx="69.473" gradientTransform="matrix(1.3185 1.2076e-15 -1.2076e-15 1.3185 -22.126 -6.2417)" r="3.5153"/>
  <radialGradient id="radialGradient6498" gradientUnits="userSpaceOnUse" cy="33.938" cx="23" gradientTransform="matrix(1 0 0 .28425 0 24.291)" r="18.25">
   <stop id="stop6494" offset="0"/>
   <stop id="stop6496" style="stop-opacity:0" offset="1"/>
  </radialGradient>
  <linearGradient id="linearGradient8530" y2="46.986" gradientUnits="userSpaceOnUse" x2="39.525" y1="19.111" x1="14.969">
   <stop id="stop8526" style="stop-color:#fff" offset="0"/>
   <stop id="stop8528" style="stop-color:#fff;stop-opacity:0" offset="1"/>
  </linearGradient>
  <radialGradient id="radialGradient8548" gradientUnits="userSpaceOnUse" cy="25.271" cx="6.0242" gradientTransform="matrix(.91616 .093187 -.10876 1.0693 3.2537 -3.0293)" r="4.831">
   <stop id="stop8544" style="stop-color:#5b676b" offset="0"/>
   <stop id="stop8546" style="stop-color:#141718" offset="1"/>
  </radialGradient>
  <linearGradient id="linearGradient4330" y2="30.985" gradientUnits="userSpaceOnUse" x2="24.329" y1="30.543" x1="26.163">
   <stop id="stop8536" offset="0"/>
   <stop id="stop8538" style="stop-opacity:0" offset="1"/>
  </linearGradient>
  <linearGradient id="linearGradient4351" y2="30.293" gradientUnits="userSpaceOnUse" x2="21.213" gradientTransform="translate(-3.8365 .34597)" y1="28.083" x1="32.35">
   <stop id="stop6484" offset="0"/>
   <stop id="stop6486" style="stop-opacity:0" offset="1"/>
  </linearGradient>
  <radialGradient id="radialGradient4354" gradientUnits="userSpaceOnUse" cy="22.3" cx="18.558" gradientTransform="matrix(1.7728 -1.8476e-16 1.3514e-16 1.2967 -16.34 -6.616)" r="19.229">
   <stop id="stop6502" style="stop-color:#857c63" offset="0"/>
   <stop id="stop6504" style="stop-color:#221f19" offset="1"/>
  </radialGradient>
 </defs>
 <g id="layer1">
  <path id="path6490" style="color:black;fill-rule:evenodd;fill:url(#radialGradient6498)" d="m41.25 33.938a18.25 5.1875 0 1 1 -36.5 0 18.25 5.1875 0 1 1 36.5 0z" transform="matrix(1 0 0 1.5301 .125 -19.991)"/>
  <path id="path4323" style="fill-rule:evenodd;color:black;stroke:#2e3436;stroke-miterlimit:10;fill:url(#radialGradient4354)" d="m10.374 12.468s2.875 5.928 9.6 5.76c14.092-0.353 16.563-7.705 16.917-8.7653 0.353-1.0607 0.894-0.9 1.019 0.0802 4.597 41.719-31.896 23.819-33.192 16.713 7.247-2.121 5.48-6.187 5.48-6.187l0.176-7.601z"/>
  <path id="path6480" style="color:black;fill-rule:evenodd;fill:url(#linearGradient4351)" d="m15.738 30.066c6.739 1.348 10.17 0.098 12.179-1.453-0.53-0.685-1.436-1.436-1.436-1.436s2.353 0.654 3.182 1.724c0.826 1.066 0.306 1.723 0.09 3.088-0.481-1.199-1.38-1.648-1.501-2.124-1.807 2.497-6.307 2.393-12.514 0.201z"/>
  <path id="path8520" style="opacity:.18539;color:black;stroke:url(#linearGradient8530);stroke-miterlimit:10;fill:none" d="m36.969 11.844c-0.562 0.927-1.407 2.033-2.688 3.094-2.632 2.179-7.05 4.162-14.281 4.343-4.224 0.105-6.953-1.934-8.625-3.75l-0.125 4.469c0.136 0.419 0.415 1.39-0.062 2.719-0.515 1.429-2.155 2.891-4.9692 4 0.2503 0.522 0.4954 1.043 1.25 1.781 1.0279 1.005 2.457 2.088 4.1562 3.062 3.398 1.949 7.802 3.494 11.906 3.563 4.105 0.069 7.857-1.235 10.438-5 2.378-3.471 3.682-9.348 3-18.281z"/>
  <path id="path4357" style="fill-rule:evenodd;color:black;stroke:#888a85;stroke-miterlimit:10;stroke-width:.78261;fill:url(#radialGradient6474)" d="m72.655 21.837a3.182 3.182 0 1 1 -6.364 0 3.182 3.182 0 1 1 6.364 0z" transform="matrix(1.2778 0 0 1.2778 -75.127 -6.5078)"/>
  <path id="path5198" style="fill-rule:evenodd;color:black;stroke:#000;stroke-miterlimit:10;fill:url(#radialGradient8548)" d="m10.43 27.229a4.331 6.0988 0 1 1 -8.6622 0 4.331 6.0988 0 1 1 8.6622 0z" transform="matrix(.81098 -.58507 .58507 .81098 -14.778 6.9471)"/>
  <path id="path4359" style="fill-rule:evenodd;color:black;stroke:#000;stroke-miterlimit:10;stroke-width:1.1739;fill:#2e3436" d="m24.042 21.837a2.2981 2.2981 0 1 1 -4.597 0 2.2981 2.2981 0 1 1 4.597 0z" transform="matrix(.85185 0 0 .85185 -3.9268 3.3955)"/>
  <path id="path6450" style="opacity:.28090;color:black;stroke:url(#linearGradient6458);stroke-miterlimit:10;fill:none" d="m6.0938 22.156c-0.7983 0-1.5532 0.446-2.1876 1.344-0.6343 0.898-1.0937 2.234-1.0937 3.719 0 1.484 0.4594 2.821 1.0937 3.719 0.6344 0.897 1.3893 1.343 2.1876 1.343 0.7982 0 1.5772-0.476 2.2187-1.375 0.6415-0.898 1.0937-2.206 1.0937-3.687 0-1.482-0.4522-2.789-1.0937-3.688-0.6415-0.898-1.4205-1.375-2.2187-1.375z" transform="matrix(.80039 -.59948 .59948 .80039 -15.274 7.3278)"/>
  <path id="path6446" style="color:black;fill-rule:evenodd;fill:#fff" d="m5.8336 23.251a1.7678 2.1213 0 1 1 -3.5355 0 1.7678 2.1213 0 1 1 3.5355 0z"/>
  <path id="path4361" style="color:black;fill-rule:evenodd;fill:#fff" d="m23.158 20.953a1.7678 1.7678 0 1 1 -3.536 0 1.7678 1.7678 0 1 1 3.536 0z" transform="matrix(.76667 0 0 .76667 -2.5564 5.0298)"/>
  <path id="path6462" style="fill-rule:evenodd;color:black;stroke:#888a85;stroke-miterlimit:10;stroke-width:.66667;fill:url(#radialGradient6474)" d="m72.655 21.837a3.182 3.182 0 1 1 -6.364 0 3.182 3.182 0 1 1 6.364 0z" transform="matrix(1.5 0 0 1.5 -82.168 -10.919)"/>
  <path id="path6464" style="fill-rule:evenodd;color:black;stroke:#000;stroke-miterlimit:10;fill:#2e3436" d="m24.042 21.837a2.2981 2.2981 0 1 1 -4.597 0 2.2981 2.2981 0 1 1 4.597 0z" transform="translate(1.4142 .70711)"/>
  <path id="path6466" style="color:black;fill-rule:evenodd;fill:#fff" d="m23.158 20.953a1.7678 1.7678 0 1 1 -3.536 0 1.7678 1.7678 0 1 1 3.536 0z" transform="matrix(.9 0 0 .9 3.0229 2.6256)"/>
  <g id="g8463" transform="matrix(-.11485 -.38986 .38986 -.11485 24.715 29.689)">
   <path id="path6937" style="color:black;stroke:#673907;stroke-linecap:round;stroke-width:2.4605;fill:url(#linearGradient6957)" d="m-23.364 23.568l3.71 3.47c8.347-6.381 17.094-20.1 17.094-20.1 1.9763-2.2423-0.117-3.7503-2.1649-2.3978 0 0-12.97 10.115-18.639 19.028z"/>
   <path id="path6935" style="color:black;stroke:#888a85;stroke-linecap:round;stroke-width:2.4605;fill:url(#linearGradient6945)" d="m-30.45 32.814l2.247 1.934 8.492-7.367 0.275-0.706 1.095-0.018c-0.438-1.562-2.942-4.383-4.817-4.383l0.082 1.09-0.67 0.38-6.704 9.07z"/>
   <path id="path6985" style="stroke-linejoin:round;color:black;stroke:#fff;stroke-linecap:round;stroke-width:2.4605;fill:none" d="m-23.801 28.377l-4.365 5.266"/>
   <path id="path6933" style="color:black;fill:url(#radialGradient6969)" d="m-45.341 42.77c10.444 0 18.37 1.244 19.87-6.355 1.21-6.123-7.21-9.057-11.382-3.591-4.02 5.266-8.488 9.946-8.488 9.946z"/>
   <path id="path6971" style="opacity:.52778;color:black;fill:#fff" d="m8.875 37.75a1.25 1.25 0 1 1 -2.5 0 1.25 1.25 0 1 1 2.5 0z" transform="matrix(2.0699 -2.0058e-15 -1.6977e-15 2.0699 -44.75 -41.51)"/>
   <path id="path6983" style="color:black;fill:#fff" d="m8.875 37.75a1.25 1.25 0 1 1 -2.5 0 1.25 1.25 0 1 1 2.5 0z" transform="matrix(1.3967 6.0905e-16 8.6717e-16 1.3967 -32.055 -25.877)"/>
   <path id="path1571" style="opacity:.42778;color:black;fill:url(#linearGradient2452)" d="m-38.544 40.909s3.722 0.095 6.117-1.412c0.847-0.533 1.516 0.65 0.494 1.088-2.208 0.944-6.611 0.324-6.611 0.324z"/>
  </g>
  <path id="path8532" style="color:black;fill-rule:evenodd;fill:url(#linearGradient4330)" d="m23.003 31.737c1.497 0.143 2.85-0.273 3.412-0.475 0.098-0.555 0.537-1.621 2.046-1.691l-0.53-0.928s-1.967 1.348-4.066 1.746l-0.862 1.348z"/>
 </g>
</svg>
