/* XPM */
static char * xsidplay_mini_xpm[] = {
"16 16 7 1",
" 	c #FFFFFFFFFFFF",
".	c #00000000FFFF",
"X	c #861782078617",
"o	c #000000008617",
"O	c #000000000000",
"+	c #FFFF00000000",
"@	c #861700000000",
"                ",
"      ...       ",
"    .....X      ",
"   ......X      ",
"  .o.oXXX.....  ",
"  o.oXX  ooooXX ",
" o.oXX   oOoXX  ",
" oooX     XXX   ",
" oooX    +++    ",
"  ooo    @@@@   ",
"  ooOo   @O@O@  ",
"   OoOoOo XXXXX ",
"    OoOoOX      ",
"     XOOOX      ",
"       XXX      ",
"                "};
