/* XPM */
static char * xsidplay_xpm[] = {
"32 32 8 1",
" 	c #FFFFFFFFFFFF",
".	c #C71BC30BC71B",
"X	c #861700000000",
"o	c #000000008617",
"O	c #861782078617",
"+	c #00000000FFFF",
"@	c #000000000000",
"#	c #FFFF00000000",
"         .XX    o    XX.        ",
"       XX.OXO   oO   XO.XX      ",
"       XOOOXO   oO   XOOOXO     ",
"       XO  XO   oO   XO  XO     ",
"  o    XO  XO   oO   XO  XO   o ",
"  oO   XO.XXO .ooO .XXO  XO   oO",
"  oO .XXOXXXO oooO XXXO.XXO   oO",
"  oO XXXO.X.O .o.O .X.OXXXO   oO",
"  oO .X.O OOO  OOO  OOO.X.O   oO",
".ooO  OOO     +++       OOO .ooO",
"oooO        +++++O          oooO",
".o.O       ++++++O          .o.O",
" OOO      +o+oOOO+++++       OOO",
"          o+oOO  ooooOO         ",
"         o+oOO   o@oOO          ",
"         oooO     OOO           ",
"         oooO    ###            ",
"          ooo    XXXX           ",
"          oo@o   X@X@X          ",
"  X        @o@o@o OOOOO       X ",
"  XO        @o@o@O            XO",
"  XO         O@@@O            XO",
"  XO   oo.     OOO     .oo    XO",
"  XO   oO.oo    X    oo.OoO   XO",
".XXO   oOOOoO   XO   oOOOoO .XXO",
"XXXO   oO  oO   XO   oO  oO XXXO",
".X.O   oO  oO   XO   oO  oO .X.O",
" OOO .ooO  oO   XO   oO.ooO  OOO",
"     oooO.ooO .XXO .ooOoooO     ",
"     .o.OoooO XXXO oooO.o.O     ",
"      OOO.o.O .X.O .o.O OOO     ",
"          OOO  OOO  OOO         "};
