/* XPM */
static char *abiword[] = {
/* columns rows colors chars-per-pixel */
"32 32 136 2 ",
"   c #3C3F39",
".  c #51534E",
"X  c #555652",
"o  c #595B56",
"O  c #5B5D59",
"+  c #5E615C",
"@  c #616B57",
"#  c #61645F",
"$  c #4C5B6D",
"%  c #556765",
"&  c #5F6360",
"*  c #577A66",
"=  c #4D637D",
"-  c #636661",
";  c #70756B",
":  c #618C38",
">  c #6EB52A",
",  c #71BE25",
"<  c #73BB2D",
"1  c #6AA439",
"2  c #7ACA2C",
"3  c #6D9652",
"4  c #69A340",
"5  c #7BAF4B",
"6  c #7CB446",
"7  c #74AA5C",
"8  c #77A27F",
"9  c #80CD35",
"0  c #80C939",
"q  c #82B256",
"w  c #8AB75F",
"e  c #848C7B",
"r  c #8BB563",
"t  c #89BC60",
"y  c #80C148",
"u  c #8BC74F",
"i  c #90CE57",
"p  c #91C064",
"a  c #9ED965",
"s  c #9BC374",
"d  c #546B86",
"f  c #596F8B",
"g  c #577580",
"h  c #5B718C",
"j  c #5E7491",
"k  c #667587",
"l  c #617692",
"z  c #657994",
"x  c #657C99",
"c  c #687F9D",
"v  c #677FA0",
"b  c #6C819D",
"n  c #658E9C",
"m  c #778696",
"M  c #71859F",
"N  c #6C83A2",
"B  c #6B87AB",
"V  c #6D89AE",
"C  c #7187A3",
"Z  c #7589A4",
"A  c #748CAB",
"S  c #788FAC",
"D  c #7D94AA",
"F  c #6488B6",
"G  c #6E8DB4",
"H  c #6E8FB9",
"J  c #748FB2",
"K  c #7791B2",
"L  c #7C94B3",
"P  c #7191BB",
"I  c #7F97B8",
"U  c #7E9BBD",
"Y  c #7598C4",
"T  c #7A9BC6",
"R  c #7E9EC8",
"E  c #898C86",
"W  c #84B282",
"Q  c #9FA896",
"!  c #8295AE",
"~  c #8196B3",
"^  c #8399B5",
"/  c #859DBC",
"(  c #899FBB",
")  c #8EA2BC",
"_  c #AEB9A4",
"`  c #A1C480",
"'  c #AECD8F",
"]  c #ADCB92",
"[  c #B3CD9A",
"{  c #B8DE94",
"}  c #B6D19D",
"|  c #B8D39F",
" . c #B9CBA8",
".. c #BBD7A0",
"X. c #C3D5B1",
"o. c #CAD6BE",
"O. c #829DC0",
"+. c #86A2C6",
"@. c #8AA3C4",
"#. c #85A3CA",
"$. c #8BA6CA",
"%. c #8EA9CC",
"&. c #90A5C1",
"*. c #94A9C5",
"=. c #99ACC5",
"-. c #92ABCC",
";. c #9AAEC8",
":. c #9CB0CB",
">. c #8FABD0",
",. c #93AED2",
"<. c #96B1D3",
"1. c #9BB4D5",
"2. c #9FB7D8",
"3. c #A3B4CC",
"4. c #A1B6D2",
"5. c #A4B9D4",
"6. c #AABBD2",
"7. c #A3BAD9",
"8. c #A8BFDB",
"9. c #ADC2DD",
"0. c #B2C2D6",
"q. c #B4C6DD",
"w. c #B0C5E0",
"e. c #B4C8E2",
"r. c #BACCE4",
"t. c #BFD0E7",
"y. c #C8CEC1",
"u. c #CAD3C2",
"i. c #CED3C9",
"p. c #D4DDCB",
"a. c #C3D2E7",
"s. c #C5D5EA",
"d. c #C9D7E9",
"f. c #CCDAEE",
"g. c #D3E0F1",
"h. c None",
/* pixels */
"h.h.h.h.h.h.h.h.h.h.h.h.h.h.h.h.h.h.h.h.h.h.h.h.h.h.h.h.h.h.h.h.",
"h.h.h.h.h.h.h.h.h.h.h.h.h.~ +./ C h.h.h.h.h.h.h.h.h.h.h.h.h.h.h.",
"h.h.h.h.h.h.h.h.h.h.h.h.&.<.<.<.%.C h.h.h.h.h.h.h.h.h.h.h.h.h.h.",
"h.h.h.h.h.h.h.h.h.h.h.&.7.2.1.<.,.@.l h.h.h.h.h.h.h.h.h.h.h.h.h.",
"h.h.h.h.h.h.h.h.h.h.( 8.8.7.7.4.<.<.) h.h.h.h.h.h.h.h.h.h.h.h.h.",
"h.h.h.h.h.h.h.h.h.D 9.q.9.9.7.7.1.<.,.A h.h.h.h.h.h.h.h.h.h.h.h.",
"h.h.h.h.h.h.h.h.z 5.r.e.e.:.( ) 5.1.<.%.h.h.h.h.h.h.h.h.h.h.h.h.",
"h.h.h.h.h.h.h.h.=.t.a.r.4.l h.h.( 1.<.,.L h.h.h.h.h.h.h.h.h.h.h.",
"h.h.h.h.h.h.h.Z r.s.s.q.b h.h.h.h.*.<.<.%.x h.h.h.h.h.h.h.w  .h.",
"h.h.h.h.h.h.h.3.f.f.d.) h.h.h.h.h.b <.<.>.L h.h.h.h.h.h.p { p h.",
"h.h.h.h.h.h.D a.g.g.0.h.h.h.h.h.h.h.^ <.>.$.j h.h.h.h.q X.} 6 h.",
"h.h.h.h.h.h.6.d.f.d.! h.h.h.h.h.h.h.h.&.,.$.L h.h.h.h.| o.r h.h.",
"h.h.h.h.h.! r.s.f.3.h.h.h.h.h.h.h.h.h.S >.$.R h.h.h.' p.` h.h.h.",
"h.h.h.h.h.;.a.a.q.M h.h.h.h.h.h.h.h.h.h./ #.#.b h.s p.] h.h.h.h.",
"h.h.h.h.Z 9.r.r.=.h.h.h.h.h.h.h.h.h.h.h.b +.R D t ..[ 5 h.h.h.h.",
"h.h.h.h.) w.e.9.M h.h.h.h.h.h.h.h.h.h.h.h.U U W a u 6 h.h.h.h.h.",
"h.h.h.h.1.9.9.;.h.h.h.h.h.h.h.h.h.h.h.h.h.d 8 i 0 > h.h.h.h.h.h.",
"h.h.h.~ 4.7.8.Z h.h.h.h.h.h.h.h.h.h.h.h.Z * y 9 < 1 h.h.h.h.h.h.",
"h.h.h.( 2.7.*.h.h.h.h.h.h.h.h.h.h.c L *.m 3 2 , 7 g h.h.h.h.h.h.",
"h.h.h.>.<.<.^ h.h.h.h.h.h.h.f ~ ( %.@.k & @ : 4 n V h.h.h.h.h.h.",
"h.h.b ,.,.%.h h.h.h.h.h.M ( %.>.@.S $ O - O o % H P h.h.h.h.h.h.",
"h.h.A #.$.>.h.h.h.Z ^ @.,.>.%.S h.h.o - + O o h.B F x h.h.h.h.h.",
"h.h.@.#.#.%.B L &.$.>.$.$.I j h.h.X - + O o h.h.h.H J h.h.h.h.h.",
"h.h.$.T R O.#.#.#.#.#.I x h.h.h.h.+ - O O X h.h.h.A G h.h.h.h.h.",
"h.h.+.Y T T R +.I A = h.h.h.h.h.o - O O X h.h.h.h.h.K h.h.h.h.h.",
"h.h.A O.+.U N f h.h.h.h.h.h.h.  + + O . h.h.h.h.h.h.b h.h.h.h.h.",
"h.h.h.h.h.h.h.h.h.h.h.h.h.h.h.e E - . h.h.h.h.h.h.h.h.h.h.h.h.h.",
"h.h.h.h.h.h.h.h.h.h.h.h.h.h.h.y.i.; h.h.h.h.h.h.h.h.h.h.h.h.h.h.",
"h.h.h.h.h.h.h.h.h.h.h.h.h.h.Q u._ h.h.h.h.h.h.h.h.h.h.h.h.h.h.h.",
"h.h.h.h.h.h.h.h.h.h.h.h.h.h.h.h.h.h.h.h.h.h.h.h.h.h.h.h.h.h.h.h.",
"h.h.h.h.h.h.h.h.h.h.h.h.h.h.h.h.h.h.h.h.h.h.h.h.h.h.h.h.h.h.h.h.",
"h.h.h.h.h.h.h.h.h.h.h.h.h.h.h.h.h.h.h.h.h.h.h.h.h.h.h.h.h.h.h.h."
};
