/* XPM */
static char * gnome_mplayer_xpm[] = {
"32 32 33 1",
" 	c None",
".	c #323330",
"+	c #3E3D3B",
"@	c #4A4947",
"#	c #3467A7",
"$	c #666867",
"%	c #56708E",
"&	c #3F74B0",
"*	c #4E79B1",
"=	c #588723",
"-	c #6E7884",
";	c #6587AE",
">	c #828481",
",	c #5D8CC1",
"'	c #749E30",
")	c #759C43",
"!	c #7A91A5",
"~	c #8E908D",
"{	c #6996C9",
"]	c #7E9B60",
"^	c #729ED1",
"/	c #8BB140",
"(	c #96AD7F",
"_	c #96B957",
":	c #AAACA9",
"<	c #98BD4C",
"[	c #B7B9B6",
"}	c #AFC09D",
"|	c #AFCC76",
"1	c #C9CCC8",
"2	c #D9DAD7",
"3	c #E4E5E3",
"4	c #EDEFEC",
"                                ",
"                                ",
"                                ",
"  .@@+------------.@@+          ",
"  .>:+^^^^^^^^^^^^.~:@          ",
"  .>:+^^^^^^^^^^^^.~:@          ",
"  .>:+^^^^^^^^^^^^.~:@          ",
"  .~:@^^^^^^^^^^^^.~:@          ",
"  .~:@{{{{{{{{{{{^.~:@          ",
"  .~:@{{{{{{{{{{{^.~:@          ",
"  .~:@{{{{{{{{{{{!>~~>~         ",
"  .~:@,,,,,,,,;![244443[        ",
"  .~:@,,,,,,,;~4444444444[>     ",
"  .~:@,,,,,,;:4334444444441>    ",
"  .~:@.....+~44(]1344444444[    ",
"  .~:@^^^^^!444]|)]134444444~   ",
"  .~:@*****:444]|<|=]13444443   ",
"  .~:@&&&&%1444]|<<__)]134444~  ",
"  .~:@&&&&-3444]|<<<<<|=]1344:  ",
"  .~:@####$4333]|//////__)]13:  ",
"  .~:@####$3222]|///////__=}2:  ",
"  .~:@####$2222]_/////_')(322:  ",
"  .~:@####%1111]_////)=}32112>  ",
"  .~:@#####:111]///')(2211112$  ",
"  .$$@#####-111]/'=}21111111~   ",
"   . . . . +~1[()(21[[[[[[[:    ",
"            $:[11[[[[[[[[[1$    ",
"             $~[::::::::[:$     ",
"               $::::::::>       ",
"                 $>>>>$@        ",
"                                ",
"                                "};
