/* XPM */
static char * gv_icon_xpm[] = {
/* width height num_colors chars_per_pixel */
"50 50 3 1",
/* colors */
" 	c None",
".	c black",
"X	c white",
/* pixels */
"                                                  ",
"                                                  ",
"                                                  ",
"                                                  ",
"                                                  ",
"                                                  ",
"                                                  ",
"                                                  ",
"                                                  ",
"                     ......                       ",
"                    ..XXXX...                     ",
"                   ..XXXXXXX..                    ",
"                  ..XXXXXXXXX.                    ",
"                  ..XXXXXXXXXX.                   ",
"                  ..XXXXXXXXXX.                   ",
"                  ..XXXXXXXXX..                   ",
"                  ...XXXXXXX..                    ",
"         ....      ..XXXXXX..                     ",
"         ..X..     ...XXXXX.      ....            ",
"        ...XX.      ..XXXXX.     ..XX..           ",
"        ...XX...    .XXXXXX.    ..XXXX.           ",
"         ...XXX.....XXXXXXX..  ..XXX...           ",
"          ...XXXXXXXXXXXXXXX....XXX..             ",
"           ....XXXXXXXXXXXXXXXXXXX..              ",
"             ...XXXXXXXXXXXXXXXXX..               ",
"              ...XXXXXXXXXXXXXXX..                ",
"               ...XXXXXXXXXXXXX..                 ",
"                ..XXXXXXXXXXXXX..                 ",
"                ...XXXXXXXXXXX..                  ",
"                ...XXXXXXXXXX..                   ",
"                 ..XXXXXXXXXX.                    ",
"                 ...XXXXXXXX..                    ",
"                  ...XXXXXXX.                     ",
"                   ..XXXXXXX..                    ",
"                   ...XXXXXX..                    ",
"                    ...XXXXXX.                    ",
"                    ...XXXXXX..   ..              ",
"                     ...XXXXX.......              ",
"                     ...XXXXXX....X.              ",
"                      ...XXXXXXXXX..              ",
"                       ....XXXXXX..               ",
"                        ..........                ",
"                          .......                 ",
"                                                  ",
"                                                  ",
"                                                  ",
"                                                  ",
"                                                  ",
"                                                  ",
"                                                  "};
