/* XPM */
static char *mksh32[] = {
/* $MirOS: contrib/hosted/tg/deb/mksh/debian/mksh32.xpm,v 1.1 2009/08/01 17:43:00 smultron Exp $ */
"32 32 256 2",
/* colours */
"  	c None",
". 	c #0E0705",
"+ 	c #0F0907",
"@ 	c #100A08",
"# 	c #110B0A",
"$ 	c #120D0B",
"% 	c #150E05",
"& 	c #130E0C",
"* 	c #160F06",
"= 	c #140F0E",
"- 	c #171008",
"; 	c #15100F",
"> 	c #181109",
", 	c #161110",
"' 	c #111310",
") 	c #18120A",
"! 	c #161211",
"~ 	c #1D110C",
"{ 	c #171312",
"] 	c #1D120D",
"^ 	c #141513",
"/ 	c #1A140D",
"( 	c #1E130E",
"_ 	c #191514",
": 	c #1F140F",
"< 	c #151714",
"[ 	c #191615",
"} 	c #1F1510",
"| 	c #1C1610",
"1 	c #1E170B",
"2 	c #1D1711",
"3 	c #22160D",
"4 	c #211612",
"5 	c #1B1817",
"6 	c #1D1812",
"7 	c #181917",
"8 	c #221713",
"9 	c #20190F",
"0 	c #1D1918",
"a 	c #1F1914",
"b 	c #1D1A19",
"c 	c #201A15",
"d 	c #201B16",
"e 	c #241A16",
"f 	c #1F1C1B",
"g 	c #1C1D1B",
"h 	c #211C17",
"i 	c #221C17",
"j 	c #231D18",
"k 	c #1E1F1D",
"l 	c #221E1D",
"m 	c #241E19",
"n 	c #261F15",
"o 	c #231F1E",
"p 	c #20211F",
"q 	c #24201F",
"r 	c #26211B",
"s 	c #252120",
"t 	c #252120",
"u 	c #28221D",
"v 	c #222421",
"w 	c #232422",
"x 	c #2B241A",
"y 	c #282423",
"z 	c #2A241E",
"A 	c #2A241F",
"B 	c #292524",
"C 	c #2B2520",
"D 	c #252724",
"E 	c #2C2621",
"F 	c #272826",
"G 	c #2B2726",
"H 	c #2D2722",
"I 	c #2F281E",
"J 	c #2E2822",
"K 	c #2F2924",
"L 	c #352820",
"M 	c #302A25",
"N 	c #2F2A29",
"O 	c #2A2C29",
"P 	c #2F2B2A",
"Q 	c #332D28",
"R 	c #2E2F2D",
"S 	c #322E2D",
"T 	c #332F2E",
"U 	c #352F2A",
"V 	c #34302F",
"W 	c #30322F",
"X 	c #37312B",
"Y 	c #363231",
"Z 	c #38322C",
"` 	c #383433",
" .	c #3A342E",
"..	c #3B342F",
"+.	c #343633",
"@.	c #353734",
"#.	c #3B3736",
"$.	c #3D3731",
"%.	c #373936",
"&.	c #383937",
"*.	c #3C3837",
"=.	c #3F3933",
"-.	c #3E3A39",
";.	c #403A34",
">.	c #413A35",
",.	c #403B3A",
"'.	c #423B36",
").	c #3B3D3A",
"!.	c #413C3B",
"~.	c #433C36",
"{.	c #3D3E3C",
"].	c #4A3D39",
"^.	c #433F3E",
"/.	c #453F39",
"(.	c #40413F",
"_.	c #484035",
":.	c #4D3F36",
"<.	c #454140",
"[.	c #414341",
"}.	c #48423C",
"|.	c #474241",
"1.	c #504239",
"2.	c #434542",
"3.	c #494443",
"4.	c #4B443E",
"5.	c #51433A",
"6.	c #52433A",
"7.	c #544436",
"8.	c #53453C",
"9.	c #4C4746",
"0.	c #4E4741",
"a.	c #484947",
"b.	c #4E4948",
"c.	c #59493B",
"d.	c #4A4C4A",
"e.	c #4F4B4A",
"f.	c #514B45",
"g.	c #584A41",
"h.	c #504C4A",
"i.	c #524D4C",
"j.	c #5E4C39",
"k.	c #534E4D",
"l.	c #4E504D",
"m.	c #5F4D3A",
"n.	c #4F514E",
"o.	c #614F3B",
"p.	c #58514B",
"q.	c #515350",
"r.	c #64523E",
"s.	c #635244",
"t.	c #545553",
"u.	c #5D5449",
"v.	c #6D533C",
"w.	c #5B5756",
"x.	c #705438",
"y.	c #6F543E",
"z.	c #695743",
"A.	c #5D5957",
"B.	c #69584A",
"C.	c #5B5D5A",
"D.	c #6B5A4C",
"E.	c #5D5F5C",
"F.	c #795C3A",
"G.	c #65605F",
"H.	c #7B5E3C",
"I.	c #7D5F3E",
"J.	c #686362",
"K.	c #7C614A",
"L.	c #666765",
"M.	c #7E634B",
"N.	c #88623D",
"O.	c #816448",
"P.	c #686967",
"Q.	c #8A643F",
"R.	c #696B68",
"S.	c #856745",
"T.	c #8C6641",
"U.	c #85684B",
"V.	c #8E6842",
"W.	c #6C6E6B",
"X.	c #896A48",
"Y.	c #936C40",
"Z.	c #717370",
"`.	c #966E3C",
" +	c #787372",
".+	c #956F49",
"++	c #976F44",
"@+	c #98703E",
"#+	c #A07141",
"$+	c #9B7347",
"%+	c #777976",
"&+	c #A4743E",
"*+	c #797B78",
"=+	c #9E764A",
"-+	c #7A7C79",
";+	c #817C7B",
">+	c #A77747",
",+	c #A37948",
"'+	c #A87848",
")+	c #AC7A45",
"!+	c #AE7B3F",
"~+	c #858784",
"{+	c #B97F45",
"]+	c #B58145",
"^+	c #B4814B",
"/+	c #8B8D8A",
"(+	c #C28646",
"_+	c #C98C45",
":+	c #CC8E47",
"<+	c #D18D48",
"[+	c #989A97",
"}+	c #D1934C",
"|+	c #D79246",
"1+	c #D99348",
"2+	c #9D9F9C",
"3+	c #DB954A",
"4+	c #9EA09D",
"5+	c #DF9745",
"6+	c #A1A3A0",
"7+	c #E19947",
"8+	c #E29A48",
"9+	c #A3A5A1",
"0+	c #E39C49",
"a+	c #A4A6A3",
"b+	c #EA9B4B",
"c+	c #E69E4B",
"d+	c #A6A8A5",
"e+	c #ED9D46",
"f+	c #A7A9A6",
"g+	c #E9A046",
"h+	c #A9ABA8",
"i+	c #F0A048",
"j+	c #EBA248",
"k+	c #AAACA9",
"l+	c #ACAEAB",
"m+	c #F5A445",
"n+	c #F4A44C",
"o+	c #AEB0AD",
"p+	c #F6A546",
"q+	c #F8A647",
"r+	c #B0B2AE",
"s+	c #B1B3AF",
"t+	c #B2B4B1",
"u+	c #B4B6B3",
"v+	c #B6B8B4",
"w+	c #B7B9B6",
"x+	c #B8BAB7",
"y+	c #B9BBB8",
"z+	c #BCBEBB",
"A+	c #C0C2BE",
"B+	c #C1C3BF",
"C+	c #C2C4C1",
"D+	c #C4C6C3",
"E+	c #C6C8C5",
"F+	c #C7C9C6",
"G+	c #CACCC9",
/* pixels */
"                                                                ",
"                                                                ",
"                                                                ",
"            t+t+t+t+t+t+o+h+a+6+6+d+k+r+t+t+t+t+t+t+t+          ",
"  f+-+P.E.t.d.2.).+.R F w p k 7 7 g k v D O W @.{.[.a.q.C.-+9+  ",
"  Z.0 $ $ $ $ $ $ $ $ $ $ $ $ $ $ $ $ $ $ $ $ $ $ $ $ $ $ F %+  ",
"  A.& & & ' _ 0 0 f l q s y B G B y y s q o l f f 0 , & & _ W.  ",
"v+n.= = = ` >.N.>.>.>.~.>.>.>.]+].>.>.>.~.!.7.!+>.>.S = = , L.  ",
"w+3., , , ~.@+7+#+>.0.!.>.>.>.m+:.>.>.>.~.4.m.b+>.>.` = , , C.  ",
"y+{., , _ F._+{+F.c.7+b+_+1+>.m+o.3+o.)+5+1+z.j+1+(+*., , , l.y+",
"x+%., , 0 j.g+1+y.g.c+=+'+1+8.q+7+I.~.j+.+u.B.m+6.q+_.^ , , 3.x+",
"s++._ _ f >.1.:+e+z.8+=+,+1+D.q+}+>+0.U.}+8+r.b+>.n+6.< _ _ (.o+",
"k+V _ _ o H.&+<+e+j.8+=+,+1+s.q+B.e+s.$+O.e+v.b+>.n+6.0 _ , &.f+",
"d+T _ _ q 1.T.:+m.:.++K.M.V.1.,+p.S.x.++^+X.6.Y.>.`.L = , @ ` 6+",
"6+N 2 2 q >.>.Q.>.>.b.i.b.>.~.i.i.|.>.4.i.f.>.$.z > > + @ @ T 2+",
"4+N 2 2 q >.>.>.>.>.i.i.4.>.^.i.i.~.>.0.h.#.i > > > > . # # V 6+",
"9+Y a a q >.>.>.>.!.i.i.}.>.|.i.i.$.K U J i > > > > > + $ $ ` a+",
"h+#.c c l >.>.>.>./.i.i.^.$.,.=.Q > > H H z E z j > > @ % % *.h+",
"r+,.i i m >.>.>.;.~.,.K | > u u 4 > > H E m ( > j 8 > @ * * ,.o+",
"w+|.i i c Q z e > > > > / | 8 / > > > ( > > > > r 2 > @ > > !.u+",
"A+9.i e , > > > / / j z r j j r z z u r j i i z i > > # > > |.y+",
"D+h.~ ~ $ = > > z C 8 > > > > > > > > ( | 4 4 > > > = $ ~ ~ 3.C+",
"E+C.~ ~ > & > 4 r 8 > > > > > > > > > > > > > > > > # > ~ ~ w.E+",
"  Z.: : : $ $ # # # # # @ # # # # # # # # # # $ # # = : : : R.F+",
"  ~+9 1 1 1 1 1 1 1 1 1 1 1 1 1 1 1 1 1 1 1 1 1 1 1 1 1 1 n *+  ",
"  [+M 3 3 3 3 3 3 3 3 3 3 3 3 3 3 3 3 3 3 3 3 3 3 3 3 3 3 $./+  ",
"  B+;+G.w.k.9.|.>.$. .X Q M I x z H M Q U Z ..>.|.b.w.J. +/+z+  ",
"        G+G+G+G+G+E+A+y+v+s+l+h+h+o+u+y+B+F+G+G+G+G+G+G+        ",
"                                                                ",
"                                                                ",
"                                                                ",
"                                                                "};
