/* XPM */
static char *mksh16lg[] = {
/* $MirOS: contrib/hosted/tg/deb/mksh/debian/mksh16lg.xpm,v 1.1 2009/08/01 17:49:01 smultron Exp $ */
"16 16 169 2",
/* colours */
"   c None",
" . c #2A221C",
" X c #615448",
" o c #636261",
" O c #A5A5A5",
" + c #654E38",
" @ c #5D5C5B",
" # c #2D2622",
" $ c #2B2420",
" % c #1A120C",
" & c #201815",
" * c #858382",
" = c #1F1814",
" - c #1D1612",
" ; c #C08545",
" : c #131312",
" > c #8D8D8D",
" , c #17100C",
" < c #8B8B8B",
" 1 c #150E0A",
" 2 c #140E09",
" 3 c #686562",
" 4 c #858585",
" 5 c #65615F",
" 6 c #A97742",
" 7 c #836341",
" 8 c #1D1815",
" 9 c #818181",
" 0 c #130E0B",
" q c #777777",
" w c #666563",
" e c #737373",
" r c #A37849",
" t c #4C3D2F",
" y c #A6A6A5",
" u c #6F6F6F",
" i c #6C5A4B",
" p c #5D472F",
" a c #9C9C9B",
" s c #332D2A",
" d c #CD8D47",
" f c #616161",
" g c #959494",
" h c #A47543",
" j c #171615",
" k c #A37342",
" l c #161414",
" z c #151413",
" x c #1B130F",
" c c #7B5D3F",
" v c #131211",
" b c #7E7C7A",
" n c #11100F",
" m c #170F0B",
" M c #7A7876",
" N c #898888",
" B c #535353",
" V c #757271",
" C c #593E24",
" Z c #838282",
" A c #BA854B",
" S c #5A4A3C",
" D c #644C32",
" F c #7B7A7A",
" G c #75593C",
" H c #946C40",
" J c #B47F45",
" K c #B27D43",
" L c #433C39",
" P c #413A37",
" I c #6F6E6E",
" U c #3F3835",
" Y c #181512",
" T c #1D140D",
" R c #6B6A6A",
" E c #665544",
" W c #483A2D",
" Q c #131110",
" ! c #CD8E49",
" ~ c #201A16",
" ^ c #16100C",
" / c #140E0A",
" ( c #130C09",
" ) c #1B1614",
" _ c #B4B4B4",
" ` c #181411",
" ' c #684724",
" ] c #A2A2A2",
" [ c #2C2521",
" { c #261F1B",
" } c #1D1C1C",
" | c #211916",
".  c #969696",
".. c #1F1714",
".X c #1E1713",
".o c #171616",
".O c #1C1511",
".+ c #8E8E8E",
".@ c #150F0A",
".# c #0F0E0E",
".$ c #140F09",
".% c #140D09",
".& c #868686",
".* c #767473",
".= c #462F19",
".- c #534C4A",
".; c #735C45",
".: c #262321",
".> c #7A7A7A",
"., c #C68947",
".< c #BE8649",
".1 c #785D43",
".2 c #6C6C6C",
".3 c #161311",
".4 c #5B5A58",
".5 c #B5834A",
".6 c #9A6F40",
".7 c #686868",
".8 c #312011",
".9 c #916A41",
".0 c #261E1A",
".q c #646464",
".w c #241C18",
".e c #231C17",
".r c #221A16",
".t c #7C634A",
".y c #181716",
".u c #5C5C5C",
".i c #1C1410",
".p c #2B2622",
".a c #908F8F",
".s c #5A5A5A",
".d c #1A120E",
".f c #986D41",
".g c #17100B",
".h c #100F0E",
".j c #140E08",
".k c #9E754A",
".l c #664D34",
".z c #5F5B58",
".x c #DF984B",
".c c #5D5956",
".v c #946B40",
".b c #211E1B",
".n c #110C08",
".m c #443D3A",
".M c #7A6044",
".N c #2F2722",
".B c #1E150E",
".V c #646363",
".C c #2E2924",
".Z c #171614",
".A c #7D5F40",
".S c #1C150F",
".D c #141211",
".F c #131210",
".G c #19110C",
".H c #878685",
".J c #CBCBCB",
".K c #C28848",
".L c #716E6C",
".P c #865F38",
".I c #C08646",
".U c #6D6A68",
".Y c #140D0A",
".T c #7F6348",
".R c #20160F",
".E c #6F6E6D",
".W c #3B3430",
/* pixels */
"                                ",
" _.+ 9 q.2.q.u B B.s f.7 u q < _",
".& j.# n v z.Z.y.o.Z l :.F.h } >",
" e Q.: P P.m.v P P P.m.v P.b.D 4",
" R.3 W.f.9 E.I c S.6.1., H.C.3.>",
".V Y D K J.k.x.5.T.< i d k p ` I",
" @ ).l 6 6 r !.K X.A A ;.P C 0 o",
".4 8 t G G.t 7.;.M h + '.=.8.n o",
" w ~ s P L.-.W U #.w $.w.O ( 2.E",
".*.e.p [.0 = -.r x.O.O x.r.Y.g F",
" Z.S.$ m { &.i.i.X | |.. m 1 % N",
" g T , ^.d 2.%.j.Y /.Y 1.@.G.B. ",
" O ..R.R.R.R.R.R.R.R.R.R.R.R.N ]",
".J a.H b V.U 5.c.z 3.L M *.a y.J",
"                                ",
"                                "};
