/* XPM */
static char *emacs[] = {
/* columns rows colors chars-per-pixel */
"32 32 134 2 ",
"   c #00000F",
".  c #010137",
"X  c #04043A",
"o  c #0C0B3D",
"O  c #070741",
"+  c #0E0E42",
"@  c #151444",
"#  c #14134B",
"$  c #1C1C4C",
"%  c #191952",
"&  c #1E1E59",
"*  c #2B2B4F",
"=  c #252357",
"-  c #25255B",
";  c #2C2C5F",
":  c #302F55",
">  c #302F5F",
",  c #30305D",
"<  c #252562",
"1  c #2E2B61",
"2  c #323265",
"3  c #393862",
"4  c #35326B",
"5  c #3D3D6E",
"6  c #3B3A74",
"7  c #33317A",
"8  c #403E7C",
"9  c #4F4F55",
"0  c #4F4F5D",
"q  c #4C4B6B",
"w  c #53536C",
"e  c #404074",
"r  c #484777",
"t  c #484874",
"y  c #4E4C7F",
"u  c #504E7B",
"i  c #535276",
"p  c #5B5B73",
"a  c #55547C",
"s  c #5D5E79",
"d  c #605F78",
"f  c #63637B",
"g  c #444484",
"h  c #494782",
"j  c #4F4E80",
"k  c #484789",
"l  c #4D4A89",
"z  c #5C5D80",
"x  c #59578E",
"c  c #474495",
"v  c #484597",
"b  c #4D4A98",
"n  c #524E94",
"m  c #545396",
"M  c #595693",
"N  c #595895",
"B  c #54529D",
"V  c #5C5A9B",
"C  c #646385",
"Z  c #6F6E82",
"A  c #68688A",
"S  c #707084",
"D  c #7B7B85",
"F  c #797988",
"G  c #66659C",
"H  c #4D49A5",
"J  c #4F4AA8",
"K  c #514DA7",
"L  c #534EA9",
"P  c #5653A7",
"I  c #5A57A6",
"U  c #5C59A5",
"Y  c #5652AB",
"T  c #5A56AA",
"R  c #5D5AAC",
"E  c #5E5BB2",
"W  c #605EA7",
"Q  c #615DAD",
"!  c #615DB1",
"~  c #6664A4",
"^  c #6360AF",
"/  c #6C6AAA",
"(  c #6663B1",
")  c #6966B2",
"_  c #6D6AB4",
"`  c #716EB6",
"'  c #706EB9",
"]  c #7472B6",
"[  c #7D7BB0",
"{  c #7674B9",
"}  c #7976BA",
"|  c #7C7BBC",
" . c #817EBE",
".. c #82828C",
"X. c #868791",
"o. c #95959F",
"O. c #8888A0",
"+. c #8380BF",
"@. c #9B9BB9",
"#. c #A6A4BE",
"$. c #8482C0",
"%. c #8986C2",
"&. c #8D8AC4",
"*. c #908EC6",
"=. c #9190C7",
"-. c #9594C9",
";. c #9896CA",
":. c #9C9ACC",
">. c #A4A3CB",
",. c #A4A2D0",
"<. c #A8A7D2",
"1. c #ACAAD5",
"2. c #B0AFD7",
"3. c #B3B2D7",
"4. c #B5B4D9",
"5. c #B8B7DB",
"6. c #BDBBDD",
"7. c #C0BFDF",
"8. c gainsboro",
"9. c #E0DFDF",
"0. c #C4C3E1",
"q. c #C8C7E3",
"w. c #CBCAE4",
"e. c #D5D4EA",
"r. c #DBDAED",
"t. c #DFDFF0",
"y. c #E4E4F1",
"u. c #ECEBF5",
"i. c #F0EFF7",
"p. c #EFF0F7",
"a. c #F0F0F7",
"s. c #F3F3F9",
"d. c #FCFBFD",
"f. c None",
/* pixels */
"f.f.f.f.f.f.f.f.f.f.f.f.T L Y Y Y Y f.f.f.f.f.f.f.f.f.f.f.f.f.f.",
"f.f.f.f.f.f.f.f.f.Y Y Y T T T T Y Y Y Y Y f.f.f.f.f.f.f.f.f.f.f.",
"f.f.f.f.f.f.f.Y Y Y T Q ! _ ' ' ' ) ) E L J L f.f.f.f.f.f.f.f.f.",
"f.f.f.f.f.Y Y T Y R ( _ } |  .+.*.:.:.;.*.| Y J f.f.f.f.f.f.f.f.",
"f.f.f.f.Y T Y T Q ) _ { | $.%.+.,.6.e.t.s.d.r.} L f.f.f.f.f.f.f.",
"f.f.f.Y T T T Q ) } :.1.1.<.>.:.*.&.%.%.<.i.d.y.) L f.f.f.f.f.f.",
"f.f.f.R P R Q ( ` 0.a.p.a.a.p.u.t.e.q.6.0.u.i.d.&.J Y f.f.f.f.f.",
"f.f.Y I Y R Q ` } w.a.u.p.a.s.s.s.d.d.d.d.s.s.d.+.K T Y f.f.f.f.",
"f.f.T T T R ) ] | :.u.u.u.r.5.2.2.3.6.q.e.r.r.<.R T Y T f.f.f.f.",
"f.T T T R E _ { +.+.5.i.s.7.-.:.;.-.*.%. . .] Q R T R H u f.f.f.",
"f.T R T I Q _ { +.*.&.7.p.p.6.-.;.;.*.%.| ] ( Q R ! v - o.9 f.f.",
"f.T R T R R ) {  .+.+.&.4.u.s.q.-.%.%. .{ ) ( Q ! v % X.s   f.f.",
"T T I R R R ! ) ` | %.&.%.:.e.p.e.;.] ] _ ) ) ) v % F p % f.f.f.",
"T R T R R Y ) %.<.q.e.r.r.q.4.e.y.t.;.) ) ) ) K & Z p o 8 8 f.f.",
"T T R I P %.r.a.a.p.u.u.p.a.p.y.y.u.u.3.] ) I < f w X 4 P T f.f.",
"T R R P *.s.s.a.u.u.p.u.e.q.7.6.5.3.<.<.$.Q 6 p q . 1 n T T f.f.",
"T R T T w.p.u.p.p.s.e.-.] ` ` _ ` ) ) ) ) g S d X = n T T f.f.f.",
"R R R P 2.p.y.y.s.w.) ( ` ] { { ] ] ` ' l z q $ , h T R T f.f.f.",
"f.R R T ) w.u.t.p.4.W ' { | | | | | | m j a X $ l T R T I f.f.f.",
"f.R R R T ] w.u.y.u.1.| ] } |  . .%.~ r C + @ h U R I R R f.f.f.",
"f.R R R R T ^ 1.t.u.p.t.4.-.%.|  .] 5 A $ + y U E R R T f.f.f.f.",
"f.f.R R R Q R I  .0.y.s.d.s.y.w.<.e z - X r / _ Q R I T f.f.f.f.",
"f.f.R R R Q Q Q / { ;.0.r.y.s.d.O.t ; o C [ ] _ E R R f.f.f.f.f.",
"f.f.f.R R Q R ( ] $.+.+.=.;.1.@.i = o ..9.s.>.E I U R f.f.f.f.f.",
"f.f.f.f.E Q R ( | =.,.1.4.0.>.2 q * D 8.s.a.1.I R E f.f.f.f.f.f.",
"f.f.f.f.f.E E Q ) | *.,.4.0.C # X f #.1.;.' I E I f.f.f.f.f.f.f.",
"f.f.f.f.f.f.U ^ R Q ) ' | V + X 3 G ` ) R T E M f.f.f.f.f.f.f.f.",
"f.f.f.f.f.f.0 N ! ! R ! E & X > N ^ E E E U a f.f.f.f.f.f.f.f.f.",
"f.f.f.f.f.f.f.f.w N U ( 7 O 4 B E E R V j f.f.f.f.f.f.f.f.f.f.f.",
"f.f.f.f.f.f.f.f.f.f.f.q @ : u N x a 0 f.f.f.f.f.f.f.f.f.f.f.f.f.",
"f.f.f.f.f.f.f.f.f.f.f.f.f.f.f.f.f.f.f.f.f.f.f.f.f.f.f.f.f.f.f.f.",
"f.f.f.f.f.f.f.f.f.f.f.f.f.f.f.f.f.f.f.f.f.f.f.f.f.f.f.f.f.f.f.f."
};
